<mxfile host="app.diagrams.net" modified="2022-11-05T22:58:30.032Z" agent="5.0 (Windows NT 10.0; Win64; x64) AppleWebKit/537.36 (KHTML, like Gecko) Chrome/107.0.0.0 Safari/537.36" etag="pnT-C2LibyGUwjsZ-aVL" version="20.5.2" type="github">
  <diagram id="oRTsgRgfgLog9_kqWxQm" name="PÃ¡gina-1">
    <mxGraphModel dx="1038" dy="571" grid="1" gridSize="10" guides="1" tooltips="1" connect="1" arrows="1" fold="1" page="1" pageScale="1" pageWidth="827" pageHeight="1169" math="0" shadow="0">
      <root>
        <mxCell id="0" />
        <mxCell id="1" parent="0" />
        <mxCell id="UNbA5PcahBYx7iptyyJV-6" style="edgeStyle=orthogonalEdgeStyle;rounded=0;orthogonalLoop=1;jettySize=auto;html=1;entryX=0.5;entryY=0;entryDx=0;entryDy=0;entryPerimeter=0;exitX=0.5;exitY=1;exitDx=0;exitDy=0;exitPerimeter=0;" edge="1" parent="1" source="UNbA5PcahBYx7iptyyJV-15" target="UNbA5PcahBYx7iptyyJV-5">
          <mxGeometry relative="1" as="geometry">
            <mxPoint x="180" y="100" as="sourcePoint" />
          </mxGeometry>
        </mxCell>
        <mxCell id="UNbA5PcahBYx7iptyyJV-7" value="&lt;font style=&quot;vertical-align: inherit;&quot;&gt;&lt;font style=&quot;vertical-align: inherit;&quot;&gt;SI&lt;/font&gt;&lt;/font&gt;" style="edgeStyle=orthogonalEdgeStyle;rounded=0;orthogonalLoop=1;jettySize=auto;html=1;entryX=0;entryY=0.5;entryDx=0;entryDy=0;" edge="1" parent="1" source="UNbA5PcahBYx7iptyyJV-5" target="UNbA5PcahBYx7iptyyJV-22">
          <mxGeometry relative="1" as="geometry">
            <mxPoint x="300" y="120" as="targetPoint" />
          </mxGeometry>
        </mxCell>
        <mxCell id="UNbA5PcahBYx7iptyyJV-11" value="NO" style="edgeStyle=orthogonalEdgeStyle;rounded=0;orthogonalLoop=1;jettySize=auto;html=1;exitX=0.5;exitY=1;exitDx=0;exitDy=0;exitPerimeter=0;entryX=0.5;entryY=0;entryDx=0;entryDy=0;" edge="1" parent="1" source="UNbA5PcahBYx7iptyyJV-5" target="UNbA5PcahBYx7iptyyJV-10">
          <mxGeometry relative="1" as="geometry" />
        </mxCell>
        <mxCell id="UNbA5PcahBYx7iptyyJV-5" value="&lt;font style=&quot;vertical-align: inherit;&quot;&gt;&lt;font style=&quot;vertical-align: inherit;&quot;&gt;Se encuentra registrado?&lt;/font&gt;&lt;/font&gt;" style="strokeWidth=2;html=1;shape=mxgraph.flowchart.decision;whiteSpace=wrap;" vertex="1" parent="1">
          <mxGeometry x="130" y="170" width="100" height="100" as="geometry" />
        </mxCell>
        <mxCell id="UNbA5PcahBYx7iptyyJV-21" style="edgeStyle=orthogonalEdgeStyle;rounded=0;orthogonalLoop=1;jettySize=auto;html=1;entryX=0;entryY=0.5;entryDx=0;entryDy=0;" edge="1" parent="1" source="UNbA5PcahBYx7iptyyJV-8" target="UNbA5PcahBYx7iptyyJV-20">
          <mxGeometry relative="1" as="geometry" />
        </mxCell>
        <mxCell id="UNbA5PcahBYx7iptyyJV-26" style="edgeStyle=orthogonalEdgeStyle;rounded=0;orthogonalLoop=1;jettySize=auto;html=1;" edge="1" parent="1" source="UNbA5PcahBYx7iptyyJV-8" target="UNbA5PcahBYx7iptyyJV-24">
          <mxGeometry relative="1" as="geometry" />
        </mxCell>
        <mxCell id="UNbA5PcahBYx7iptyyJV-8" value="&lt;font style=&quot;vertical-align: inherit;&quot;&gt;&lt;font style=&quot;vertical-align: inherit;&quot;&gt;Validar datos&lt;br&gt;Creacion de token&lt;br&gt;&lt;/font&gt;&lt;/font&gt;" style="rounded=1;whiteSpace=wrap;html=1;absoluteArcSize=1;arcSize=14;strokeWidth=2;" vertex="1" parent="1">
          <mxGeometry x="460" y="90" width="140" height="50" as="geometry" />
        </mxCell>
        <mxCell id="UNbA5PcahBYx7iptyyJV-13" style="edgeStyle=orthogonalEdgeStyle;rounded=0;orthogonalLoop=1;jettySize=auto;html=1;exitX=0.5;exitY=1;exitDx=0;exitDy=0;entryX=0.5;entryY=0;entryDx=0;entryDy=0;entryPerimeter=0;" edge="1" parent="1" source="UNbA5PcahBYx7iptyyJV-10" target="UNbA5PcahBYx7iptyyJV-12">
          <mxGeometry relative="1" as="geometry" />
        </mxCell>
        <mxCell id="UNbA5PcahBYx7iptyyJV-10" value="&lt;font style=&quot;vertical-align: inherit;&quot;&gt;&lt;font style=&quot;vertical-align: inherit;&quot;&gt;&lt;span style=&quot;box-sizing: border-box; color: var(--color-prettylights-syntax-variable); font-family: ui-monospace, SFMono-Regular, &amp;quot;SF Mono&amp;quot;, Menlo, Consolas, &amp;quot;Liberation Mono&amp;quot;, monospace; text-align: start; background-color: rgb(255, 255, 255);&quot; class=&quot;pl-v&quot;&gt;AuthController&lt;/span&gt;&lt;span style=&quot;color: rgb(36, 41, 47); font-family: ui-monospace, SFMono-Regular, &amp;quot;SF Mono&amp;quot;, Menlo, Consolas, &amp;quot;Liberation Mono&amp;quot;, monospace; text-align: start; background-color: rgb(255, 255, 255);&quot;&gt;::class,&lt;/span&gt;&lt;span style=&quot;box-sizing: border-box; color: var(--color-prettylights-syntax-string); font-family: ui-monospace, SFMono-Regular, &amp;quot;SF Mono&amp;quot;, Menlo, Consolas, &amp;quot;Liberation Mono&amp;quot;, monospace; text-align: start; background-color: rgb(255, 255, 255);&quot; class=&quot;pl-s&quot;&gt;&#39;register&#39;&lt;/span&gt;&lt;br&gt;&lt;/font&gt;&lt;/font&gt;" style="rounded=1;whiteSpace=wrap;html=1;absoluteArcSize=1;arcSize=14;strokeWidth=2;" vertex="1" parent="1">
          <mxGeometry x="30" y="310" width="230" height="60" as="geometry" />
        </mxCell>
        <mxCell id="UNbA5PcahBYx7iptyyJV-18" style="edgeStyle=orthogonalEdgeStyle;rounded=0;orthogonalLoop=1;jettySize=auto;html=1;exitX=0.5;exitY=1;exitDx=0;exitDy=0;exitPerimeter=0;entryX=0.5;entryY=0;entryDx=0;entryDy=0;" edge="1" parent="1" source="UNbA5PcahBYx7iptyyJV-12" target="UNbA5PcahBYx7iptyyJV-14">
          <mxGeometry relative="1" as="geometry" />
        </mxCell>
        <mxCell id="UNbA5PcahBYx7iptyyJV-12" value="&lt;br&gt;&lt;br&gt;name&lt;br&gt;email&lt;br&gt;password" style="strokeWidth=2;html=1;shape=mxgraph.flowchart.database;whiteSpace=wrap;" vertex="1" parent="1">
          <mxGeometry x="92.5" y="400" width="65" height="80" as="geometry" />
        </mxCell>
        <mxCell id="UNbA5PcahBYx7iptyyJV-19" style="edgeStyle=orthogonalEdgeStyle;rounded=0;orthogonalLoop=1;jettySize=auto;html=1;exitX=0.5;exitY=1;exitDx=0;exitDy=0;" edge="1" parent="1" source="UNbA5PcahBYx7iptyyJV-14" target="UNbA5PcahBYx7iptyyJV-17">
          <mxGeometry relative="1" as="geometry" />
        </mxCell>
        <mxCell id="UNbA5PcahBYx7iptyyJV-14" value="User creator&lt;br&gt;Password encrrypted" style="rounded=1;whiteSpace=wrap;html=1;absoluteArcSize=1;arcSize=14;strokeWidth=2;" vertex="1" parent="1">
          <mxGeometry x="75" y="510" width="125" height="50" as="geometry" />
        </mxCell>
        <mxCell id="UNbA5PcahBYx7iptyyJV-15" value="&#xa;&lt;span style=&quot;color: rgb(0, 0, 0); font-family: Helvetica; font-size: 12px; font-style: normal; font-variant-ligatures: normal; font-variant-caps: normal; font-weight: 400; letter-spacing: normal; orphans: 2; text-align: center; text-indent: 0px; text-transform: none; widows: 2; word-spacing: 0px; -webkit-text-stroke-width: 0px; background-color: rgb(248, 249, 250); text-decoration-thickness: initial; text-decoration-style: initial; text-decoration-color: initial; float: none; display: inline !important;&quot;&gt;usuario ingresar&lt;/span&gt;&#xa;&#xa;" style="strokeWidth=2;html=1;shape=mxgraph.flowchart.start_1;whiteSpace=wrap;" vertex="1" parent="1">
          <mxGeometry x="130" y="40" width="110" height="55" as="geometry" />
        </mxCell>
        <mxCell id="UNbA5PcahBYx7iptyyJV-17" value="Usuario registrado" style="strokeWidth=2;html=1;shape=mxgraph.flowchart.display;whiteSpace=wrap;" vertex="1" parent="1">
          <mxGeometry x="87.5" y="600" width="100" height="60" as="geometry" />
        </mxCell>
        <mxCell id="UNbA5PcahBYx7iptyyJV-20" value="Ver perfil&lt;br&gt;&lt;span style=&quot;box-sizing: border-box; color: var(--color-prettylights-syntax-variable); font-family: ui-monospace, SFMono-Regular, &amp;quot;SF Mono&amp;quot;, Menlo, Consolas, &amp;quot;Liberation Mono&amp;quot;, monospace; text-align: start; background-color: rgb(255, 255, 255);&quot; class=&quot;pl-v&quot;&gt;AuthController&lt;br&gt;&lt;/span&gt;&lt;span style=&quot;color: rgb(36, 41, 47); font-family: ui-monospace, SFMono-Regular, &amp;quot;SF Mono&amp;quot;, Menlo, Consolas, &amp;quot;Liberation Mono&amp;quot;, monospace; text-align: start; background-color: rgb(255, 255, 255);&quot;&gt;::class,&lt;/span&gt;&lt;span style=&quot;box-sizing: border-box; color: var(--color-prettylights-syntax-string); font-family: ui-monospace, SFMono-Regular, &amp;quot;SF Mono&amp;quot;, Menlo, Consolas, &amp;quot;Liberation Mono&amp;quot;, monospace; text-align: start; background-color: rgb(255, 255, 255);&quot; class=&quot;pl-s&quot;&gt;&#39;userprofile&#39;&lt;/span&gt;" style="rounded=1;whiteSpace=wrap;html=1;absoluteArcSize=1;arcSize=14;strokeWidth=2;" vertex="1" parent="1">
          <mxGeometry x="630" y="100" width="150" height="60" as="geometry" />
        </mxCell>
        <mxCell id="UNbA5PcahBYx7iptyyJV-23" style="edgeStyle=orthogonalEdgeStyle;rounded=0;orthogonalLoop=1;jettySize=auto;html=1;" edge="1" parent="1" source="UNbA5PcahBYx7iptyyJV-22" target="UNbA5PcahBYx7iptyyJV-8">
          <mxGeometry relative="1" as="geometry" />
        </mxCell>
        <mxCell id="UNbA5PcahBYx7iptyyJV-22" value="&lt;span style=&quot;box-sizing: border-box; color: var(--color-prettylights-syntax-variable); font-family: ui-monospace, SFMono-Regular, &amp;quot;SF Mono&amp;quot;, Menlo, Consolas, &amp;quot;Liberation Mono&amp;quot;, monospace; text-align: start; background-color: rgb(255, 255, 255);&quot; class=&quot;pl-v&quot;&gt;AuthController&lt;br&gt;&lt;/span&gt;&lt;span style=&quot;color: rgb(36, 41, 47); font-family: ui-monospace, SFMono-Regular, &amp;quot;SF Mono&amp;quot;, Menlo, Consolas, &amp;quot;Liberation Mono&amp;quot;, monospace; text-align: start; background-color: rgb(255, 255, 255);&quot;&gt;::class,&lt;/span&gt;&lt;span style=&quot;box-sizing: border-box; color: var(--color-prettylights-syntax-string); font-family: ui-monospace, SFMono-Regular, &amp;quot;SF Mono&amp;quot;, Menlo, Consolas, &amp;quot;Liberation Mono&amp;quot;, monospace; text-align: start; background-color: rgb(255, 255, 255);&quot; class=&quot;pl-s&quot;&gt;&#39;login&#39;&lt;/span&gt;&lt;br&gt;&lt;font style=&quot;vertical-align: inherit;&quot;&gt;Iniciar sesiÃ³n&lt;/font&gt;&lt;br&gt;&lt;font style=&quot;vertical-align: inherit;&quot;&gt;Email&lt;/font&gt;&lt;br&gt;&lt;font style=&quot;vertical-align: inherit;&quot;&gt;ContraseÃ±a&amp;nbsp;&lt;/font&gt;" style="rounded=1;whiteSpace=wrap;html=1;absoluteArcSize=1;arcSize=14;strokeWidth=2;" vertex="1" parent="1">
          <mxGeometry x="310" y="75" width="120" height="80" as="geometry" />
        </mxCell>
        <mxCell id="UNbA5PcahBYx7iptyyJV-24" value="Ver lista de hoteles del usuario&lt;br&gt;&lt;span style=&quot;box-sizing: border-box; color: var(--color-prettylights-syntax-variable); font-family: ui-monospace, SFMono-Regular, &amp;quot;SF Mono&amp;quot;, Menlo, Consolas, &amp;quot;Liberation Mono&amp;quot;, monospace; text-align: start; background-color: rgb(255, 255, 255);&quot; class=&quot;pl-v&quot;&gt;AuthController&lt;br&gt;&lt;/span&gt;&lt;span style=&quot;color: rgb(36, 41, 47); font-family: ui-monospace, SFMono-Regular, &amp;quot;SF Mono&amp;quot;, Menlo, Consolas, &amp;quot;Liberation Mono&amp;quot;, monospace; text-align: start; background-color: rgb(255, 255, 255);&quot;&gt;::class,&lt;/span&gt;&lt;span style=&quot;box-sizing: border-box; color: var(--color-prettylights-syntax-string); font-family: ui-monospace, SFMono-Regular, &amp;quot;SF Mono&amp;quot;, Menlo, Consolas, &amp;quot;Liberation Mono&amp;quot;, monospace; text-align: start; background-color: rgb(255, 255, 255);&quot; class=&quot;pl-s&quot;&gt;&#39;userhotel&#39;&lt;/span&gt;" style="rounded=1;whiteSpace=wrap;html=1;absoluteArcSize=1;arcSize=14;strokeWidth=2;" vertex="1" parent="1">
          <mxGeometry x="540" y="190" width="140" height="100" as="geometry" />
        </mxCell>
      </root>
    </mxGraphModel>
  </diagram>
</mxfile>
